<?xml version="1.0" encoding="iso-8859-1"?>
<!-- Generator: Adobe Illustrator 19.0.0, SVG Export Plug-In . SVG Version: 6.00 Build 0)  -->
<svg version="1.1" id="Capa_1" xmlns="http://www.w3.org/2000/svg" xmlns:xlink="http://www.w3.org/1999/xlink" x="0px" y="0px"
	 viewBox="0 0 512 512" style="enable-background:new 0 0 512 512;" xml:space="preserve">
<g>
	<g>
		<g>
			<path d="M289.133,314.763h-30.051l-20.698-20.478v-10.512c25.452-14.496,43.855-39.993,48.698-69.974h10.336
				c13.271,0,24.066-10.796,24.066-24.066v-41.418c0-13.271-10.796-24.066-24.066-24.066h-9.068V73.767
				c0-22.405-18.228-40.633-40.633-40.633H202.89C196.307,13.884,178.051,0,156.601,0c-24.109,0-44.186,17.536-48.181,40.52
				c-10.746,7.562-17.302,19.987-17.302,33.246v50.482h-9.066c-13.271,0-24.066,10.796-24.066,24.066v41.418
				c0,13.27,10.796,24.066,24.066,24.066h10.335c4.843,29.981,23.247,55.478,48.699,69.974v10.513l-20.698,20.477H90.335
				C40.525,314.762,0,355.286,0,405.097V504.5c0,4.143,3.358,7.5,7.5,7.5h60.033c4.142,0,7.5-3.357,7.5-7.5s-3.358-7.5-7.5-7.5H15
				v-91.902c0-41.54,33.795-75.335,75.335-75.335h22.056l-29.02,72.552c-1.317,3.293-0.148,7.059,2.803,9.025l96.06,64.042V497
				H97.533c-4.142,0-7.5,3.357-7.5,7.5s3.358,7.5,7.5,7.5h274.434c4.142,0,7.5-3.357,7.5-7.5v-99.402
				C379.468,355.287,338.944,314.763,289.133,314.763z M288.35,198.017v-58.77h9.068v0.001c4.999,0,9.066,4.067,9.066,9.066v41.418
				c0,4.999-4.067,9.066-9.066,9.066h-9.078C288.342,198.537,288.35,198.278,288.35,198.017z M82.051,198.8L82.051,198.8
				c-4.999-0.001-9.066-4.068-9.066-9.067v-41.418c0-4.999,4.067-9.066,9.066-9.066h9.066v58.77c0,0.261,0.008,0.521,0.01,0.781
				H82.051z M279.895,402.239l-66.443,44.178l32.413-54.026c0.018-0.03,0.032-0.062,0.049-0.092c0.057-0.098,0.107-0.199,0.16-0.299
				c0.091-0.174,0.176-0.35,0.252-0.528c0.041-0.096,0.082-0.192,0.119-0.29c0.092-0.244,0.172-0.49,0.238-0.738
				c0.008-0.031,0.022-0.06,0.03-0.092l10.864-43.461L279.895,402.239z M189.734,349.438l22.528,22.528l-17.352,17.35h-10.354
				l-17.35-17.35l8.68-8.68L189.734,349.438z M179.934,318.329l-23.85-24.005v-3.605c10.505,3.825,21.837,5.915,33.649,5.915
				s23.144-2.09,33.649-5.915v3.605l-33.649,33.867L179.934,318.329z M222.869,382.573l7.121,7.121l-18.719,31.2l-5.011-21.714
				L222.869,382.573z M247.687,324.591l-12.316,49.271l-7.19-7.19c-0.003-0.003-0.006-0.007-0.009-0.01l-27.848-27.848
				l30.605-30.802L247.687,324.591z M156.601,15c18.702,0,33.917,15.215,33.917,33.916c0,4.143,3.358,7.5,7.5,7.5
				c4.142,0,7.5-3.357,7.5-7.5c0-0.263-0.016-0.521-0.02-0.783h42.22c14.134,0,25.633,11.499,25.633,25.633v49.636
				c-12.688-2.877-22.693-12.881-25.57-25.569h8.221c4.142,0,7.5-3.357,7.5-7.5s-3.358-7.5-7.5-7.5h-16.529
				c-0.013,0-0.026-0.002-0.039-0.002s-0.026,0.002-0.039,0.002h-82.794c-18.702,0-33.917-15.215-33.917-33.917
				C122.684,30.215,137.898,15,156.601,15z M106.117,73.766c0-4.38,1.143-8.612,3.194-12.341
				c3.399,12.838,11.901,23.615,23.194,30.036c-0.515,15.622-11.64,28.597-26.388,31.941V73.766z M106.117,198.018v-59.345
				c21.021-3.249,37.665-19.928,40.86-40.965c0.436,0.079,0.882,0.126,1.34,0.126h84.192c3.243,20.979,19.862,37.598,40.841,40.84
				v59.345c0,46.106-37.51,83.616-83.616,83.616C143.627,281.634,106.117,244.124,106.117,198.018z M148.538,308.011l16.154,16.259
				l14.451,14.545l-27.849,27.848c-0.003,0.003-0.006,0.007-0.009,0.01l-7.19,7.19l-12.316-49.272L148.538,308.011z M99.557,402.235
				l22.259-55.648l10.92,43.687c0.006,0.023,0.012,0.046,0.017,0.069l0.002,0.008c0.001,0.005,0.003,0.009,0.005,0.014
				c0.071,0.283,0.164,0.563,0.271,0.84c0.03,0.079,0.064,0.157,0.096,0.235c0.085,0.202,0.181,0.401,0.285,0.598
				c0.043,0.081,0.083,0.163,0.129,0.242c0.021,0.037,0.037,0.075,0.059,0.111l31.288,52.147c0.002,0.003,0.003,0.006,0.005,0.009
				l1.248,2.079L99.557,402.235z M168.195,420.894l-18.719-31.199l7.122-7.123l16.608,16.607L168.195,420.894z M179.314,439.424
				l8.102-35.109h4.634l8.101,35.109l-10.418,17.365L179.314,439.424z M364.468,497H197.234v-21.791l96.052-63.865
				c2.962-1.97,4.133-5.75,2.803-9.05l-29.247-72.532h22.29c41.54,0,75.335,33.795,75.335,75.335V497z"/>
			<path d="M272.567,443.159c-4.142,0-7.5,3.357-7.5,7.5v24.85c0,4.143,3.358,7.5,7.5,7.5h66.267c4.142,0,7.5-3.357,7.5-7.5v-24.85
				c0-4.143-3.358-7.5-7.5-7.5H272.567z M331.334,468.009h-51.267v-9.85h51.267V468.009z"/>
			<path d="M471.367,49.699h-99.402c-22.404,0-40.632,18.227-40.632,40.632v99.401c0,22.405,18.228,40.633,40.632,40.633h0.784V256
				c0,3.228,2.066,6.095,5.128,7.115c0.78,0.26,1.579,0.386,2.371,0.385c2.316,0,4.558-1.075,6.001-3l22.6-30.135h62.519
				c22.405,0,40.632-18.228,40.632-40.633V90.331C511.999,67.927,493.772,49.699,471.367,49.699z M471.367,215.365h-66.269
				c-2.361,0-4.584,1.111-6,3l-11.35,15.134v-10.634c0-4.143-3.358-7.5-7.5-7.5h-8.284c-14.133,0-25.632-11.499-25.632-25.633
				V90.331c0-14.134,11.499-25.632,25.632-25.632h99.402c14.134,0,25.632,11.498,25.632,25.632v99.401h0.001
				C496.999,203.866,485.501,215.365,471.367,215.365z"/>
			<path d="M487.114,89.622c-0.009-0.092-0.026-0.183-0.038-0.275c-0.02-0.15-0.038-0.3-0.067-0.449
				c-0.017-0.087-0.041-0.173-0.062-0.26c-0.035-0.152-0.069-0.303-0.114-0.453c-0.023-0.076-0.051-0.149-0.076-0.224
				c-0.052-0.158-0.105-0.315-0.168-0.469c-0.026-0.063-0.057-0.124-0.085-0.187c-0.071-0.161-0.143-0.322-0.226-0.479
				c-0.03-0.057-0.065-0.111-0.096-0.166c-0.088-0.157-0.177-0.312-0.277-0.463c-0.04-0.061-0.086-0.118-0.128-0.178
				c-0.098-0.139-0.196-0.278-0.305-0.412c-0.06-0.074-0.126-0.143-0.189-0.215c-0.099-0.113-0.196-0.226-0.303-0.334
				c-0.01-0.01-0.018-0.021-0.028-0.031c-0.081-0.081-0.168-0.152-0.252-0.228c-0.081-0.074-0.157-0.153-0.242-0.224
				c-0.01-0.009-0.021-0.015-0.032-0.024c-0.102-0.084-0.209-0.159-0.315-0.237c-0.097-0.072-0.193-0.149-0.292-0.216
				c-0.059-0.039-0.121-0.072-0.181-0.109c-1.005-0.634-2.116-1.009-3.246-1.12c-0.023-0.002-0.047-0.002-0.071-0.004
				c-0.218-0.019-0.436-0.032-0.654-0.032c-0.007,0-0.013-0.001-0.02-0.001l-16.566,0.002c-4.142,0.001-7.5,3.358-7.499,7.501
				c0,4.142,3.359,7.5,7.501,7.499h0.525l-34,40.693l-19.054-20.208c-1.548-1.64-3.745-2.489-6.003-2.335
				c-2.25,0.164-4.307,1.333-5.6,3.182l-40.558,57.984c-2.374,3.395-1.547,8.07,1.847,10.444c1.309,0.916,2.808,1.355,4.293,1.355
				c2.365,0,4.693-1.116,6.152-3.202l35.276-50.434l18.528,19.65c1.471,1.56,3.54,2.393,5.682,2.352
				c2.143-0.064,4.156-1.043,5.53-2.689l37.182-44.503c1.207,2.526,3.777,4.275,6.763,4.275c4.142,0,7.5-3.357,7.5-7.5v-16.51
				c0.004-0.005,0.004-0.01,0.004-0.015v-0.041c0-0.072-0.009-0.143-0.011-0.215C487.134,89.952,487.13,89.787,487.114,89.622z"/>
		</g>
	</g>
</g>
<g>
</g>
<g>
</g>
<g>
</g>
<g>
</g>
<g>
</g>
<g>
</g>
<g>
</g>
<g>
</g>
<g>
</g>
<g>
</g>
<g>
</g>
<g>
</g>
<g>
</g>
<g>
</g>
<g>
</g>
</svg>
