<svg width="40" height="52" viewBox="0 0 40 52" fill="none" xmlns="http://www.w3.org/2000/svg">
<path d="M37.5 21.6667H36.6667V19.1667C36.6667 17.7883 35.545 16.6667 34.1667 16.6667C32.7883 16.6667 31.6667 17.7883 31.6667 19.1667V21.82C30.6992 22.165 30 23.0817 30 24.1667V26.1192C30 27.2325 30.4342 28.2792 31.2208 29.0658L31.6075 29.4525L30.9742 33.2517C28.9058 28.6892 24.8225 25.375 19.85 24.2967L19.5167 22.9658C21.4892 22.2358 22.9583 20.4717 23.2667 18.3325H23.3333C25.1717 18.3325 26.6667 16.8375 26.6667 14.9992C26.6667 14.3192 26.46 13.6883 26.11 13.1608L26.3758 12.0983C26.5692 11.3258 26.6675 10.5317 26.6675 9.73667C26.6667 4.3675 22.2992 0 16.9292 0H14.7367C9.3675 0 5 4.3675 5 9.7375C5 10.5325 5.0975 11.3267 5.29167 12.0992L5.5575 13.1625C5.20667 13.6892 5 14.3208 5 15C5 16.8383 6.495 18.3333 8.33333 18.3333H8.4C8.70833 20.4725 10.1775 22.2358 12.15 22.9667L11.8208 24.2817C5.04583 25.5292 0 31.5125 0 38.4525V42.5C0 47.5542 4.1125 51.6667 9.16667 51.6667H16.6667C18.32 51.6667 19.685 50.455 19.945 48.875C20.9283 48.5225 21.9542 48.3333 23.0042 48.3333H26.6667V46.4692L27.8283 47.8625C28.9608 49.2208 30.6242 50 32.3925 50C35.6683 50 38.3333 47.335 38.3333 44.0592V29.5117L38.7792 29.0658C39.5658 28.2792 40 27.2325 40 26.1192V24.1667C40 22.7883 38.8783 21.6667 37.5 21.6667ZM34.1667 18.3333C34.6267 18.3333 35 18.7067 35 19.1667V21.82C34.6883 21.9308 34.4075 22.1 34.1667 22.3167C33.9258 22.0992 33.645 21.9308 33.3333 21.82V19.1667C33.3333 18.7067 33.7067 18.3333 34.1667 18.3333ZM16.5575 45C16.255 44.035 15.3517 43.3333 14.2875 43.3333C13.3808 43.3333 12.5667 43.8367 12.16 44.6483L11.985 45H10V36.6667H11.9958C13.65 36.6667 15.255 37.1175 16.6667 37.965V45H16.5575ZM14.295 26.8292L12.0225 28.6467L11.0317 26.1692C11.4717 26.0475 11.9192 25.945 12.3775 25.87L14.295 26.8292ZM15.6292 31.6667H16.0383L17.4092 36.465C16.5225 35.9475 15.5725 35.5658 14.585 35.3208L15.6292 31.6667ZM16.1517 30H15.515L14.7967 28.5633L15.8333 27.7342L16.87 28.5633L16.1517 30ZM17.3717 26.8292L19.2783 25.8758C19.7333 25.9675 20.1792 26.0808 20.6175 26.2125L19.6433 28.6467L17.3717 26.8292ZM21.6667 13.3333C21.6667 14.2525 20.9192 15 20 15C19.0808 15 18.3333 14.2525 18.3333 13.3333C18.3333 12.4142 19.0808 11.6667 20 11.6667C20.9192 11.6667 21.6667 12.4142 21.6667 13.3333ZM23.3333 16.6667V13.3333C24.2525 13.3333 25 14.0808 25 15C25 15.9192 24.2525 16.6667 23.3333 16.6667ZM14.7375 1.66667H16.93C21.3792 1.66667 25 5.2875 25 9.7375C25 10.3958 24.9183 11.055 24.7592 11.6958L24.6925 11.9633C24.2758 11.7758 23.8183 11.6667 23.3333 11.6667H23.2925C23.0883 9.76917 21.615 8.21583 19.6842 7.975L19.2442 7.92C17.7742 7.73583 16.6667 6.48083 16.6667 5H15C15 7.32 16.7358 9.28667 19.0367 9.57333L19.4767 9.62833C19.8858 9.68 20.2567 9.83583 20.5783 10.0575C20.3892 10.025 20.1983 10 20 10C18.4508 10 17.1575 11.0658 16.785 12.5H14.8817C14.5092 11.0658 13.2158 10 11.6667 10C11.0725 10 10.5233 10.1692 10.0392 10.4417C10.2242 9.2775 11.2083 8.38333 12.4142 8.34167C12.9075 9.275 13.6292 10.0875 14.5375 10.6933L15.4617 9.30667C14.1292 8.41833 13.3333 6.93083 13.3333 5.32917V5H11.6667V5.32917C11.6667 5.80833 11.7275 6.2775 11.8292 6.735C9.85167 7.0575 8.33333 8.76583 8.33333 10.8333V11.6667C7.84833 11.6667 7.39083 11.7758 6.97417 11.9633L6.9075 11.6958C6.74833 11.055 6.66667 10.3958 6.66667 9.7375C6.66667 5.2875 10.2875 1.66667 14.7375 1.66667ZM11.6667 11.6667C12.5858 11.6667 13.3333 12.4142 13.3333 13.3333C13.3333 14.2525 12.5858 15 11.6667 15C10.7475 15 10 14.2525 10 13.3333C10 12.4142 10.7475 11.6667 11.6667 11.6667ZM6.66667 15C6.66667 14.0808 7.41417 13.3333 8.33333 13.3333V16.6667C7.41417 16.6667 6.66667 15.9192 6.66667 15ZM10 17.5V16.2033C10.4925 16.49 11.0567 16.6667 11.6667 16.6667C13.2158 16.6667 14.5092 15.6008 14.8817 14.1667H16.785C17.1575 15.6008 18.4508 16.6667 20 16.6667C20.61 16.6667 21.1742 16.49 21.6667 16.2033V17.5C21.6667 19.7975 19.7975 21.6667 17.5 21.6667H14.1667C11.8692 21.6667 10 19.7975 10 17.5ZM14.1667 23.3333H17.5C17.63 23.3333 17.7583 23.3225 17.8858 23.3142L18.1958 24.5533L15.8333 25.735L13.4708 24.5533L13.7808 23.3142C13.9083 23.3225 14.0367 23.3333 14.1667 23.3333ZM1.66667 42.5V38.4525C1.66667 33.2667 4.8525 28.6808 9.45583 26.7167L11.3108 31.3533L13.4667 29.6292L14.1108 30.9167L12.9308 35.0458C12.62 35.0183 12.3092 35 11.9958 35H8.33333V44.8467C7.36583 44.5017 6.66667 43.585 6.66667 42.5V33.3333H5V42.5C5 44.7975 6.86917 46.6667 9.16667 46.6667H11.6667V50H9.16667C5.03083 50 1.66667 46.6358 1.66667 42.5ZM16.6667 50H13.3333V46.03L13.6517 45.3933C13.7725 45.1508 14.0167 45 14.2883 45C14.68 45 15 45.32 15 45.7117V46.6667H16.6667C17.5858 46.6667 18.3333 47.4142 18.3333 48.3333C18.3333 49.2525 17.5858 50 16.6667 50ZM25 46.6667H23.0042C21.9008 46.6667 20.82 46.8358 19.7775 47.165C19.5058 46.4433 18.9917 45.8475 18.3333 45.4633V37.965C19.7458 37.1175 21.35 36.6667 23.0042 36.6667H25V46.6667ZM32.3925 48.3333C31.1208 48.3333 29.9233 47.7725 29.1092 46.795L26.6667 43.8642V35H23.0042C21.6025 35 20.2308 35.275 18.9508 35.7967L17.5567 30.9158L18.2008 29.6283L20.3567 31.3525L22.1833 26.7867C26.0092 28.4483 28.9483 31.7108 30.1625 35.84L30.405 36.6642L29.1775 44.03L30.8217 44.3033L33.2058 30H36.6667V44.0592C36.6667 46.4158 34.7492 48.3333 32.3925 48.3333ZM37.6008 27.8875L37.155 28.3333H32.845L32.3992 27.8875C31.9275 27.415 31.6667 26.7875 31.6667 26.1192V24.1667C31.6667 23.7067 32.04 23.3333 32.5 23.3333C32.96 23.3333 33.3333 23.7067 33.3333 24.1667C33.3333 25.545 34.455 26.6667 35.8333 26.6667H38.2742C38.1717 27.1258 37.9408 27.5475 37.6008 27.8875ZM38.3333 25H35.8333C35.3733 25 35 24.6267 35 24.1667C35 23.7067 35.3733 23.3333 35.8333 23.3333H37.5C37.96 23.3333 38.3333 23.7067 38.3333 24.1667V25Z" fill="#46D6DB"/>
</svg>
