<svg width="54" height="54" viewBox="0 0 54 54" fill="none" xmlns="http://www.w3.org/2000/svg">
<path d="M30.4513 33.1212H27.321L25.165 30.9881V29.8931C27.8162 28.3831 29.7332 25.7271 30.2377 22.6041H31.3144C32.6968 22.6041 33.8212 21.4795 33.8212 20.0972V15.7829C33.8212 14.4005 32.6966 13.276 31.3144 13.276H30.3698V8.01744C30.3698 5.68358 28.471 3.78483 26.1372 3.78483H21.4677C20.782 1.77962 18.8803 0.333374 16.6459 0.333374C14.1346 0.333374 12.0432 2.16004 11.6271 4.55421C10.5077 5.34192 9.82477 6.63619 9.82477 8.01733V13.2759H8.8804C7.498 13.2759 6.37352 14.4005 6.37352 15.7827V20.0971C6.37352 21.4794 7.4981 22.604 8.8804 22.604H9.95696C10.4614 25.727 12.3785 28.383 15.0298 29.893V30.9881L12.8737 33.1211H9.74321C4.55467 33.1211 0.333313 37.3423 0.333313 42.531V52.8855C0.333313 53.317 0.683105 53.6667 1.11456 53.6667H7.368C7.79946 53.6667 8.14925 53.317 8.14925 52.8855C8.14925 52.4539 7.79946 52.1042 7.368 52.1042H1.89581V42.5311C1.89581 38.204 5.41613 34.6837 9.74321 34.6837H12.0407L9.01779 42.2412C8.8806 42.5842 9.00238 42.9765 9.30977 43.1813L19.316 49.8523V52.1042H10.493C10.0615 52.1042 9.71175 52.4539 9.71175 52.8855C9.71175 53.317 10.0615 53.6667 10.493 53.6667H39.0799C39.5113 53.6667 39.8611 53.317 39.8611 52.8855V42.5311C39.8612 37.3424 35.64 33.1212 30.4513 33.1212ZM30.3698 20.9601V14.8383H31.3144V14.8384C31.8351 14.8384 32.2587 15.262 32.2587 15.7827V20.0971C32.2587 20.6179 31.8351 21.0415 31.3144 21.0415H30.3687C30.3689 21.0143 30.3698 20.9873 30.3698 20.9601ZM8.88029 21.0417C8.35956 21.0416 7.93592 20.618 7.93592 20.0972V15.7829C7.93592 15.2621 8.35956 14.8385 8.88029 14.8385H9.82467V20.9604C9.82467 20.9875 9.8255 21.0146 9.82571 21.0417H8.88029ZM29.489 42.2333L22.5679 46.8351L25.9443 41.2074C25.9461 41.2043 25.9476 41.201 25.9494 41.1979C25.9553 41.1876 25.9605 41.1771 25.966 41.1667C25.9755 41.1486 25.9844 41.1302 25.9923 41.1117C25.9965 41.1017 26.0008 41.0917 26.0047 41.0815C26.0142 41.0561 26.0226 41.0305 26.0295 41.0046C26.0303 41.0014 26.0317 40.9984 26.0326 40.995L27.1642 36.4678L29.489 42.2333ZM20.0973 36.7332L22.4439 39.0798L20.6364 40.8871H19.5579L17.7506 39.0798L18.6548 38.1757L20.0973 36.7332ZM19.0764 33.4926L16.5921 30.9921V30.6166C17.6863 31.015 18.8668 31.2327 20.0972 31.2327C21.3276 31.2327 22.508 31.015 23.6023 30.6166V30.9921L20.0972 34.5199L19.0764 33.4926ZM23.5488 40.1847L24.2906 40.9265L22.3407 44.1765L21.8187 41.9146L23.5488 40.1847ZM26.134 34.1449L24.8511 39.2773L24.1022 38.5284C24.1019 38.5281 24.1015 38.5276 24.1012 38.5273L21.2004 35.6265L24.3884 32.418L26.134 34.1449ZM16.6459 1.89587C18.594 1.89587 20.1789 3.48077 20.1789 5.42879C20.1789 5.86035 20.5287 6.21004 20.9602 6.21004C21.3916 6.21004 21.7414 5.86035 21.7414 5.42879C21.7414 5.40139 21.7398 5.37452 21.7394 5.34723H26.1373C27.6096 5.34723 28.8074 6.54504 28.8074 8.01733V13.1877C27.4857 12.8881 26.4435 11.846 26.1438 10.5243H27.0002C27.4316 10.5243 27.7814 10.1746 27.7814 9.74306C27.7814 9.3115 27.4316 8.96181 27.0002 8.96181H25.2784C25.2771 8.96181 25.2757 8.9616 25.2744 8.9616C25.273 8.9616 25.2716 8.96181 25.2703 8.96181H16.6459C14.6978 8.96181 13.1129 7.37692 13.1129 5.42879C13.1129 3.48077 14.6977 1.89587 16.6459 1.89587ZM11.3872 8.01733C11.3872 7.56108 11.5062 7.12025 11.7199 6.73181C12.0739 8.0691 12.9596 9.19171 14.1359 9.86056C14.0823 11.4879 12.9234 12.8394 11.3872 13.1877V8.01733ZM11.3872 20.9602V14.7785C13.5769 14.44 15.3106 12.7026 15.6434 10.5113C15.6888 10.5195 15.7353 10.5244 15.783 10.5244H24.553C24.8908 12.7097 26.622 14.4409 28.8073 14.7786V20.9604C28.8073 25.7631 24.9 29.6704 20.0973 29.6704C15.2945 29.6702 11.3872 25.763 11.3872 20.9602ZM15.806 32.4179L17.4887 34.1115L18.994 35.6266L16.0931 38.5274C16.0928 38.5277 16.0925 38.5282 16.0922 38.5285L15.3432 39.2774L14.0603 34.1449L15.806 32.4179ZM10.7038 42.2328L13.0225 36.4362L14.16 40.9869C14.1606 40.9893 14.1612 40.9917 14.1618 40.9941L14.162 40.9949C14.1621 40.9955 14.1623 40.9959 14.1625 40.9964C14.1699 41.0259 14.1796 41.055 14.1907 41.0839C14.1938 41.0921 14.1974 41.1002 14.2007 41.1084C14.2096 41.1294 14.2196 41.1501 14.2304 41.1707C14.2349 41.1791 14.239 41.1876 14.2438 41.1959C14.246 41.1997 14.2477 41.2037 14.25 41.2074L17.5091 46.6394C17.5094 46.6397 17.5095 46.64 17.5097 46.6404L17.6397 46.8569L10.7038 42.2328ZM17.8536 44.1765L15.9037 40.9266L16.6456 40.1846L18.3756 41.9145L17.8536 44.1765ZM19.0119 46.1067L19.8558 42.4495H20.3385L21.1824 46.1067L20.0972 47.9156L19.0119 46.1067ZM38.2987 52.1042H20.8785V49.8343L30.8839 43.1817C31.1925 42.9765 31.3145 42.5827 31.1759 42.239L28.1294 34.6836H30.4512C34.7783 34.6836 38.2986 38.2039 38.2986 42.531V52.1042H38.2987Z" fill="#E75757"/>
<path d="M28.7257 46.4957C28.2942 46.4957 27.9445 46.8454 27.9445 47.277V49.8655C27.9445 50.2971 28.2942 50.6468 28.7257 50.6468H35.6285C36.06 50.6468 36.4098 50.2971 36.4098 49.8655V47.277C36.4098 46.8454 36.06 46.4957 35.6285 46.4957H28.7257ZM34.8473 49.0843H29.507V48.0582H34.8473V49.0843Z" fill="#E75757"/>
<path d="M49.434 5.51038H39.0797C36.7459 5.51038 34.8472 7.40902 34.8472 9.74288V20.0972C34.8472 22.431 36.7459 24.3298 39.0797 24.3298H39.1613V27.0001C39.1613 27.3363 39.3765 27.635 39.6955 27.7412C39.7768 27.7683 39.86 27.7814 39.9425 27.7813C40.1837 27.7813 40.4173 27.6693 40.5676 27.4688L42.9218 24.3298H49.4341C51.768 24.3298 53.6666 22.431 53.6666 20.0972V9.74288C53.6665 7.40913 51.7679 5.51038 49.434 5.51038ZM49.434 22.7673H42.531C42.2851 22.7673 42.0535 22.883 41.906 23.0798L40.7237 24.6562V23.5485C40.7237 23.1169 40.3739 22.7673 39.9425 22.7673H39.0796C37.6074 22.7673 36.4096 21.5694 36.4096 20.0972V9.74288C36.4096 8.27059 37.6074 7.07288 39.0796 7.07288H49.4339C50.9062 7.07288 52.1039 8.27059 52.1039 9.74288V20.0972H52.104C52.104 21.5694 50.9063 22.7673 49.434 22.7673Z" fill="#E75757"/>
<path d="M51.0743 9.66896C51.0734 9.65938 51.0716 9.6499 51.0704 9.64032C51.0683 9.62469 51.0664 9.60907 51.0634 9.59355C51.0616 9.58448 51.0591 9.57552 51.0569 9.56646C51.0533 9.55063 51.0497 9.5349 51.0451 9.51927C51.0427 9.51136 51.0397 9.50375 51.0371 9.49594C51.0317 9.47948 51.0262 9.46313 51.0196 9.44709C51.0169 9.44052 51.0137 9.43417 51.0108 9.42761C51.0034 9.41084 50.9959 9.39407 50.9872 9.37771C50.9841 9.37177 50.9805 9.36615 50.9772 9.36042C50.9681 9.34407 50.9588 9.32792 50.9484 9.31219C50.9442 9.30584 50.9394 9.2999 50.9351 9.29365C50.9248 9.27917 50.9146 9.26469 50.9033 9.25073C50.897 9.24302 50.8902 9.23584 50.8836 9.22834C50.8733 9.21657 50.8632 9.20479 50.852 9.19354C50.851 9.1925 50.8502 9.19136 50.8491 9.19032C50.8407 9.18188 50.8316 9.17448 50.8229 9.16657C50.8144 9.15886 50.8065 9.15063 50.7977 9.14323C50.7966 9.14229 50.7955 9.14167 50.7943 9.14073C50.7837 9.13198 50.7726 9.12417 50.7615 9.11605C50.7514 9.10855 50.7414 9.10052 50.7311 9.09354C50.725 9.08948 50.7185 9.08604 50.7122 9.08219C50.6076 9.01615 50.4918 8.97709 50.3741 8.96552C50.3717 8.96532 50.3692 8.96532 50.3667 8.96511C50.344 8.96313 50.3213 8.96177 50.2986 8.96177C50.2979 8.96177 50.2972 8.96167 50.2965 8.96167L48.5709 8.96188C48.1394 8.96198 47.7896 9.31167 47.7897 9.74323C47.7897 10.1747 48.1396 10.5245 48.5711 10.5244H48.6258L45.0841 14.7632L43.0993 12.6582C42.9381 12.4874 42.7092 12.399 42.474 12.415C42.2396 12.4321 42.0254 12.5539 41.8907 12.7465L37.6659 18.7865C37.4186 19.1401 37.5048 19.6271 37.8583 19.8744C37.9946 19.9698 38.1508 20.0155 38.3055 20.0155C38.5518 20.0155 38.7943 19.8993 38.9463 19.682L42.6209 14.4284L44.5509 16.4753C44.7041 16.6378 44.9196 16.7246 45.1428 16.7203C45.366 16.7136 45.5757 16.6117 45.7188 16.4402L49.5919 11.8045C49.7177 12.0676 49.9854 12.2498 50.2964 12.2498C50.7279 12.2498 51.0777 11.9001 51.0777 11.4685V9.74875C51.0781 9.74823 51.0781 9.74771 51.0781 9.74719V9.74292C51.0781 9.73542 51.0771 9.72802 51.0769 9.72052C51.0764 9.70334 51.076 9.68615 51.0743 9.66896Z" fill="#E75757"/>
</svg>
