<svg width="54" height="54" viewBox="0 0 54 54" fill="none" xmlns="http://www.w3.org/2000/svg">
<g clip-path="url(#clip0_224:956)">
<path d="M43.3246 35.5601V30.0081L40.9815 30.9197L40.9747 30.9042L40.9188 30.8028C40.021 29.4049 38.5689 28.4323 36.9339 28.1359L31.2959 27.11V26.665C33.4044 25.4406 34.9483 23.3519 35.4295 20.8826C36.9915 20.5596 38.1694 19.1737 38.1694 17.5172V9.03095C38.1694 6.63295 36.5988 4.54168 34.3202 3.86121L33.8907 3.43161C31.8922 1.43314 29.2356 0.333374 26.4097 0.333374C20.5766 0.333374 15.8305 5.07868 15.8305 10.9126V17.5172C15.8305 19.1737 17.0084 20.5596 18.5704 20.8826C19.0524 23.3519 20.5956 25.4415 22.704 26.665V27.11L17.0669 28.135C15.4335 28.4314 13.9824 29.4023 13.0837 30.7994L13.0321 30.9248L10.6753 30.0081V35.5601C9.25425 35.5601 8.09778 36.7166 8.09778 38.1377V41.5745C8.09778 42.9956 9.25425 44.152 10.6753 44.152V47.3173L27 53.6667L43.3246 47.3173V44.152C44.7457 44.152 45.9021 42.9956 45.9021 41.5745V38.1377C45.9021 36.7166 44.7457 35.5601 43.3246 35.5601ZM32.906 29.1497L36.6263 29.8259C37.7218 30.0252 38.6918 30.6576 39.3388 31.558L31.0261 34.7903L32.906 29.1497ZM24.4954 27.4528C25.2884 27.6951 26.1287 27.8274 27 27.8274C27.8712 27.8274 28.7115 27.6951 29.5045 27.4528L27 29.331L24.4954 27.4528ZM25.6923 30.4978L23.9387 32.2505L22.8011 28.8387L23.3484 28.7399L25.6923 30.4978ZM30.6515 28.7408L31.1988 28.8396L30.0612 32.2514L28.3076 30.4987L30.6515 28.7408ZM35.5918 18.9967V16.0376C36.1031 16.3358 36.451 16.8839 36.451 17.5172C36.451 18.1504 36.1031 18.6985 35.5918 18.9967ZM18.4081 18.9967C17.8968 18.6985 17.5489 18.1504 17.5489 17.5172C17.5489 16.8839 17.8968 16.3358 18.4081 16.0376V18.9967ZM18.4081 13.2212V14.2024C18.1022 14.2823 17.8152 14.4026 17.5489 14.5581V10.9126C17.5489 6.02722 21.5235 2.05175 26.4097 2.05175C28.7759 2.05175 31.0021 2.97366 32.6758 4.64736L33.4336 5.40603L33.6647 5.46274C35.3057 5.87257 36.451 7.34006 36.451 9.03095V14.5581C36.1847 14.4026 35.8977 14.2815 35.5918 14.2024V13.2212H32.8674C30.539 13.2212 28.3137 12.1094 26.9175 10.2476L26.2344 9.3351L24.5272 11.0432C23.1216 12.4479 21.2537 13.2212 19.2672 13.2212H18.4081ZM20.1264 19.2355V14.9001C22.2478 14.7033 24.2162 13.7831 25.7421 12.2581L26.0763 11.9238C27.799 13.8252 30.2803 14.9396 32.8674 14.9396H33.8735V19.2355C33.8735 23.0254 30.7898 26.1091 27 26.1091C23.2101 26.1091 20.1264 23.0254 20.1264 19.2355ZM17.3736 29.8259L21.0939 29.1497L22.9738 34.7903L14.6594 31.5572C15.3064 30.6559 16.2781 30.0252 17.3736 29.8259ZM9.81616 41.5745V38.1377C9.81616 37.6634 10.2019 37.2785 10.6753 37.2785C12.0964 37.2785 13.2529 38.435 13.2529 39.8561C13.2529 41.2772 12.0964 42.4337 10.6753 42.4337C10.2019 42.4337 9.81616 42.0487 9.81616 41.5745ZM26.1408 51.4878L12.3937 46.1428V43.7877C13.9085 43.1227 14.9713 41.6131 14.9713 39.8561C14.9713 38.099 13.9085 36.5895 12.3937 35.9244V32.5203L26.1408 37.8662V51.4878ZM23.5898 35.0309L27 31.6199L30.4101 35.03L27 36.3566L23.5898 35.0309ZM41.6062 46.1419L27.8591 51.4869V37.8662L41.6062 32.5203V35.9244C40.0914 36.5895 39.0286 38.099 39.0286 39.8561C39.0286 41.6131 40.0914 43.1227 41.6062 43.7877V46.1419ZM44.1837 41.5745C44.1837 42.0487 43.798 42.4337 43.3246 42.4337C41.9035 42.4337 40.747 41.2772 40.747 39.8561C40.747 38.435 41.9035 37.2785 43.3246 37.2785C43.798 37.2785 44.1837 37.6634 44.1837 38.1377V41.5745Z" fill="#224FD6"/>
</g>
<defs>
<clipPath id="clip0_224:956">
<rect width="53.3333" height="53.3333" fill="white" transform="translate(0.333313 0.333374)"/>
</clipPath>
</defs>
</svg>
