<svg width="54" height="54" viewBox="0 0 54 54" fill="none" xmlns="http://www.w3.org/2000/svg">
<path d="M51 34.1112V27.8889C51 25.7672 50.1572 23.7324 48.6569 22.2321C47.1566 20.7318 45.1217 19.8889 43 19.8889C40.8783 19.8889 38.8434 20.7318 37.3432 22.2321C35.8429 23.7324 35 25.7672 35 27.8889V29.616C33.7599 28.948 32.431 28.4598 31.0533 28.1663L27 27.1947V25.4072C28.3631 24.5201 29.4833 23.3071 30.2594 21.8779C31.0354 20.4487 31.4427 18.8485 31.4445 17.2223V14.5556H32.3333C32.5691 14.5556 32.7952 14.4619 32.9619 14.2952C33.1286 14.1285 33.2222 13.9025 33.2222 13.6667V10.1112C33.2192 7.51886 32.188 5.03362 30.355 3.2006C28.522 1.36757 26.0367 0.336432 23.4445 0.333374H19.8889C17.2966 0.336432 14.8114 1.36757 12.9783 3.2006C11.1453 5.03362 10.1142 7.51886 10.1111 10.1112V13.6667C10.1111 13.9025 10.2048 14.1285 10.3715 14.2952C10.5382 14.4619 10.7643 14.5556 11 14.5556H11.8889V17.2223C11.8906 18.8485 12.2979 20.4487 13.074 21.8779C13.85 23.3071 14.9703 24.5201 16.3333 25.4072V27.1947L12.2782 28.1663C8.90378 28.9039 5.88153 30.7697 3.71002 33.4558C1.53851 36.142 0.347465 39.4882 0.333344 42.9423V53.6667H51C51.7073 53.6667 52.3855 53.3858 52.8856 52.8857C53.3857 52.3856 53.6667 51.7073 53.6667 51V36.7778C53.6667 36.0706 53.3857 35.3923 52.8856 34.8922C52.3855 34.3921 51.7073 34.1112 51 34.1112ZM36.7778 27.8889C36.7778 26.2387 37.4333 24.656 38.6002 23.4892C39.7671 22.3223 41.3498 21.6667 43 21.6667C44.6502 21.6667 46.2329 22.3223 47.3998 23.4892C48.5667 24.656 49.2222 26.2387 49.2222 27.8889V34.1112H48.3333V27.8889C48.3333 26.4744 47.7714 25.1179 46.7712 24.1177C45.7711 23.1175 44.4145 22.5556 43 22.5556C41.5855 22.5556 40.229 23.1175 39.2288 24.1177C38.2286 25.1179 37.6667 26.4744 37.6667 27.8889V34.1112H36.7778V27.8889ZM46.5556 34.1112H39.4445V27.8889C39.4445 26.9459 39.8191 26.0416 40.4859 25.3748C41.1526 24.708 42.057 24.3334 43 24.3334C43.943 24.3334 44.8474 24.708 45.5142 25.3748C46.181 26.0416 46.5556 26.9459 46.5556 27.8889V34.1112ZM35 34.1112C34.2928 34.1112 33.6145 34.3921 33.1144 34.8922C32.6143 35.3923 32.3333 36.0706 32.3333 36.7778V51C32.3363 51.3035 32.3916 51.6043 32.4969 51.8889H28.0667L32.0667 30.2889C33.0983 30.6302 34.0835 31.0981 35 31.6818V34.1112ZM21.6667 31.6934L22.6631 32.4934L22.7965 33.6907L21.6667 34.0632L20.5369 33.688L20.6702 32.4907L21.6667 31.6934ZM20.3333 35.4952L21.3849 35.8436C21.5667 35.9039 21.7631 35.9039 21.9449 35.8436L22.9965 35.4952L24.2898 47.1183L21.6667 49.7432L19.0418 47.1183L20.3333 35.4952ZM23.2187 30.6605L26.2507 28.8409L28.2258 29.3343L25.9076 32.8116L23.2187 30.6605ZM11.8889 10.1112C11.8915 7.99021 12.7352 5.95689 14.2349 4.45716C15.7346 2.95742 17.768 2.11374 19.8889 2.11115H23.4445C25.5654 2.11374 27.5987 2.95742 29.0984 4.45716C30.5982 5.95689 31.4419 7.99021 31.4445 10.1112V12.7778H30.4871C30.0871 12.7786 29.6921 12.6891 29.3314 12.516C28.9708 12.3428 28.654 12.0905 28.4045 11.7778L25.9156 8.66671C25.8323 8.56257 25.7267 8.4785 25.6065 8.42073C25.4863 8.36296 25.3547 8.33296 25.2213 8.33296C25.088 8.33296 24.9564 8.36296 24.8362 8.42073C24.716 8.4785 24.6104 8.56257 24.5271 8.66671L23.1049 10.4445C22.5235 11.1741 21.7848 11.7629 20.944 12.167C20.1031 12.571 19.1818 12.7798 18.2489 12.7778H11.8889V10.1112ZM13.6667 17.2223V14.5556H18.2489C19.4492 14.5585 20.6346 14.2899 21.7164 13.7699C22.7983 13.2499 23.7485 12.492 24.496 11.5529L25.2222 10.6445L27.016 12.8872C27.6799 13.7177 28.621 14.281 29.6667 14.4738V17.2223C29.6667 19.344 28.8238 21.3788 27.3235 22.8791C25.8232 24.3794 23.7884 25.2223 21.6667 25.2223C19.5449 25.2223 17.5101 24.3794 16.0098 22.8791C14.5095 21.3788 13.6667 19.344 13.6667 17.2223ZM21.6667 27C22.8839 26.9985 24.0901 26.7681 25.2222 26.3209V27.3876L21.6667 29.5209L18.1111 27.3876V26.3209C19.2433 26.7681 20.4494 26.9985 21.6667 27ZM17.0809 28.8409L20.1129 30.6605L17.424 32.8116L15.1058 29.3343L17.0809 28.8409ZM2.11112 42.9423C2.12378 40.141 3.01369 37.4141 4.65584 35.1445C6.29799 32.875 8.60985 31.177 11.2667 30.2889L15.2667 51.8889H11V42.1112C11 41.8754 10.9064 41.6493 10.7397 41.4826C10.573 41.3159 10.3469 41.2223 10.1111 41.2223C9.87537 41.2223 9.64928 41.3159 9.48258 41.4826C9.31588 41.6493 9.22223 41.8754 9.22223 42.1112V51.8889H2.11112V42.9423ZM17.0729 51.8889L12.984 29.832L13.2578 29.7734L16.4782 34.6045C16.5467 34.707 16.6357 34.7941 16.7396 34.8604C16.8435 34.9266 16.96 34.9706 17.0818 34.9894C17.1282 34.9967 17.1752 35.0003 17.2222 35C17.4242 35.0001 17.6201 34.9315 17.7778 34.8054L18.7067 34.0614L17.2276 47.3458C17.2128 47.4784 17.2281 47.6126 17.2722 47.7385C17.3164 47.8643 17.3883 47.9786 17.4827 48.0729L21.0382 51.6285C21.2049 51.7951 21.431 51.8887 21.6667 51.8887C21.9024 51.8887 22.1284 51.7951 22.2951 51.6285L25.8507 48.0729C25.945 47.9786 26.017 47.8643 26.0611 47.7385C26.1053 47.6126 26.1205 47.4784 26.1058 47.3458L24.6267 34.0614L25.5556 34.8054C25.7133 34.9315 25.9092 35.0001 26.1111 35C26.1567 35.0001 26.2021 34.9965 26.2471 34.9894C26.3689 34.9706 26.4855 34.9266 26.5894 34.8604C26.6933 34.7941 26.7822 34.707 26.8507 34.6045L30.0711 29.7743L30.3449 29.8329L26.2605 51.8889H17.0729ZM51.8889 51C51.8889 51.2358 51.7952 51.4619 51.6286 51.6286C51.4619 51.7953 51.2358 51.8889 51 51.8889H35C34.7643 51.8889 34.5382 51.7953 34.3715 51.6286C34.2048 51.4619 34.1111 51.2358 34.1111 51V36.7778C34.1111 36.5421 34.2048 36.316 34.3715 36.1493C34.5382 35.9826 34.7643 35.8889 35 35.8889H51C51.2358 35.8889 51.4619 35.9826 51.6286 36.1493C51.7952 36.316 51.8889 36.5421 51.8889 36.7778V51Z" fill="#FEE50B"/>
<path d="M43 39.4445C42.3717 39.4433 41.7633 39.6645 41.2825 40.0689C40.8017 40.4733 40.4795 41.0349 40.373 41.6541C40.2665 42.2733 40.3827 42.9102 40.7008 43.452C41.0189 43.9938 41.5185 44.4055 42.1111 44.6142V49.2222C42.1111 49.458 42.2048 49.6841 42.3715 49.8508C42.5382 50.0175 42.7643 50.1111 43 50.1111C43.2358 50.1111 43.4619 50.0175 43.6286 49.8508C43.7953 49.6841 43.8889 49.458 43.8889 49.2222V44.6142C44.4815 44.4055 44.9811 43.9938 45.2993 43.452C45.6174 42.9102 45.7335 42.2733 45.627 41.6541C45.5206 41.0349 45.1984 40.4733 44.7176 40.0689C44.2368 39.6645 43.6283 39.4433 43 39.4445ZM43 43C42.8242 43 42.6524 42.9479 42.5062 42.8502C42.36 42.7525 42.2461 42.6137 42.1788 42.4513C42.1115 42.2889 42.0939 42.1101 42.1282 41.9377C42.1625 41.7653 42.2472 41.6069 42.3715 41.4826C42.4958 41.3583 42.6542 41.2736 42.8266 41.2393C42.999 41.205 43.1778 41.2226 43.3402 41.2899C43.5026 41.3572 43.6414 41.4711 43.7391 41.6173C43.8368 41.7635 43.8889 41.9353 43.8889 42.1111C43.8889 42.3469 43.7953 42.573 43.6286 42.7397C43.4619 42.9064 43.2358 43 43 43Z" fill="#FEE50B"/>
</svg>
